<?xml version="1.0" encoding="UTF-8"?>
<svg width="414px" height="896px" viewBox="0 0 414 896" version="1.1" xmlns="http://www.w3.org/2000/svg" xmlns:xlink="http://www.w3.org/1999/xlink">
    <!-- Generator: Sketch 62 (91390) - https://sketch.com -->
    <title>Travel App 1</title>
    <desc>Created with Sketch.</desc>
    <defs>
        <filter x="-70.0%" y="-99.1%" width="240.0%" height="298.1%" filterUnits="objectBoundingBox" id="filter-1">
            <feOffset dx="0" dy="7" in="SourceAlpha" result="shadowOffsetOuter1"></feOffset>
            <feGaussianBlur stdDeviation="10" in="shadowOffsetOuter1" result="shadowBlurOuter1"></feGaussianBlur>
            <feColorMatrix values="0 0 0 0 0.886238694   0 0 0 0 0.288655698   0 0 0 0 0.288655698  0 0 0 0.299688593 0" type="matrix" in="shadowBlurOuter1" result="shadowMatrixOuter1"></feColorMatrix>
            <feMerge>
                <feMergeNode in="shadowMatrixOuter1"></feMergeNode>
                <feMergeNode in="SourceGraphic"></feMergeNode>
            </feMerge>
        </filter>
    </defs>
    <g id="Travel-App-1" stroke="none" stroke-width="1" fill="none" fill-rule="evenodd">
        <rect id="Rectangle" fill="#FFFFFF" x="0" y="0" width="414" height="896" rx="40"></rect>
        <g id="Group" transform="translate(44.000000, 825.000000)">
            <rect id="Rectangle" fill="#F85D6D" x="20" y="0" width="20" height="10" rx="5"></rect>
            <rect id="Rectangle" fill="#E6E8EB" x="0" y="0" width="10" height="10" rx="5"></rect>
            <rect id="Rectangle" fill="#E6E8EB" x="50" y="0" width="10" height="10" rx="5"></rect>
        </g>
        <text id="Look-for-a-travel-Ag" font-family="PlayfairDisplay-Black, Playfair Display" font-size="32" font-weight="700" fill="#131415">
            <tspan x="24.78125" y="629">Look for a travel Agency</tspan>
        </text>
        <text id="Our-new-service-make" font-family="Muli-SemiBold, Muli" font-size="16" font-weight="500" line-spacing="26" letter-spacing="0.5" fill="#7E8795">
            <tspan x="44" y="702">Our new service makes it easy for you to </tspan>
            <tspan x="44" y="728">work anywhere, there are new features </tspan>
            <tspan x="44" y="754">will really help you.</tspan>
        </text>
        <g id="Misc/Big-Button" filter="url(#filter-1)" transform="translate(306.000000, 803.000000)">
            <path d="M26.5,0 L48.5,0 C63.1355459,-2.68850616e-15 75,11.8644541 75,26.5 C75,41.1355459 63.1355459,53 48.5,53 L26.5,53 C11.8644541,53 1.79233744e-15,41.1355459 0,26.5 C-1.79233744e-15,11.8644541 11.8644541,2.68850616e-15 26.5,0 Z" id="Background" fill="#F85D6D"></path>
            <g id="Group" transform="translate(24.000000, 19.000000)" stroke="#FFFFFF" stroke-linecap="round" stroke-linejoin="round" stroke-width="2">
                <line x1="0" y1="7.5" x2="26" y2="7.5" id="Path-2"></line>
                <polyline id="Shape" points="19 0 27 7.5 19 15"></polyline>
            </g>
        </g>
        <g id="Mencari_biro_perjalanan" transform="translate(72.000000, 83.000000)" fill-rule="nonzero">
            <g id="Woman_1_" transform="translate(143.000000, 0.000000)">
                <path d="M128,123.728467 L0.54084507,123.728467 L0.54084507,18.9167883 L128,18.9167883 L128,123.728467 Z M1.44225352,122.823358 L127.098592,122.823358 L127.098592,19.8218978 L1.44225352,19.8218978 L1.44225352,122.823358 Z" id="Shape" fill="#7D027A"></path>
                <rect id="Rectangle" fill="#281616" x="40.2028169" y="36.5664234" width="54.6253521" height="50.5956204"></rect>
                <path d="M79.4140845,20.1839416 L77.971831,31.4072993 L40.3830986,31.1357664 C40.3830986,31.1357664 38.9408451,-3.52992701 74.9070423,1.17664234 C74.9070423,1.17664234 94.5577465,3.98248175 95.0084507,31.1357664 L81.0366197,31.1357664 L79.4140845,20.1839416 Z" id="Path" fill="#281616"></path>
                <path d="M67.515493,3.07737226 C45.0704225,3.07737226 42.8169014,26.0671533 42.8169014,26.0671533 L45.6112676,26.519708 C48.856338,6.78832117 60.0338028,5.88321168 67.515493,5.88321168 C74.9971831,5.88321168 86.1746479,6.78832117 89.4197183,26.519708 L92.2140845,26.0671533 C92.2140845,25.9766423 89.9605634,3.07737226 67.515493,3.07737226 Z" id="Path" fill="#FF8F8E"></path>
                <path d="M77.3408451,76.3912409 L75.2676056,85.080292 L67.6056338,86.6189781 L67.6056338,86.9810219 L66.7943662,86.8 L65.9830986,86.9810219 L65.9830986,86.6189781 L58.3211268,85.080292 L56.2478873,76.3912409 C56.6985915,75.9386861 57.0591549,75.3051095 57.3295775,74.5810219 C59.6732394,69.4218978 59.0422535,59.6467153 59.0422535,59.0131387 C59.0422535,59.0131387 59.0422535,59.0131387 59.0422535,59.0131387 L59.1323944,59.0131387 L66.884507,60.9138686 L74.6366197,59.0131387 L74.7267606,59.0131387 C74.7267606,59.0131387 74.7267606,59.0131387 74.7267606,59.0131387 C74.7267606,59.3751825 74.456338,63.6291971 74.9070423,68.0642336 C74.9971831,71.4131387 75.7183099,74.6715328 77.3408451,76.3912409 Z" id="Path" fill="#FFD3CA"></path>
                <path d="M91.3126761,26.9722628 C95.1887324,27.0627737 98.343662,30.3211679 98.343662,34.2131387 C98.343662,38.1051095 95.1887324,41.3635036 91.3126761,41.4540146 L91.3126761,26.9722628 Z" id="Path" fill="#F8CA7A"></path>
                <path d="M57.1492958,74.6715328 C59.4929577,69.5124088 58.8619718,59.7372263 58.8619718,59.1036496 L74.456338,59.1036496 C74.456338,59.4656934 74.1859155,63.719708 74.6366197,68.1547445 L57.1492958,74.6715328 Z" id="Path" fill="#F9B2B2"></path>
                <path d="M67.4253521,29.9591241 L44.4394366,29.5065693 L44.8901408,40.2773723 C44.8901408,40.2773723 50.2084507,63.9912409 67.0647887,65.529927 L67.0647887,65.620438 C67.2450704,65.620438 67.4253521,65.620438 67.6056338,65.620438 C67.7859155,65.620438 67.9661972,65.620438 68.1464789,65.620438 L68.1464789,65.529927 C84.9126761,63.9912409 89.8704225,40.2773723 89.8704225,40.2773723 L90.3211268,29.5065693 L83.7408451,29.5970803 L79.143662,17.5591241 L76.0788732,29.7781022 L67.4253521,29.9591241 Z" id="Path" fill="#FFD3CA"></path>
                <path d="M53.4535211,52.2248175 C44.5295775,51.7722628 38.8507042,49.5094891 36.5070423,45.2554745 C33.7126761,40.2773723 36.8676056,34.6656934 36.9577465,34.3941606 L37.7690141,34.8467153 C37.7690141,34.9372263 34.7943662,40.2773723 37.3183099,44.8029197 C39.4816901,48.6948905 44.8901408,50.8671533 53.4535211,51.2291971 L53.4535211,52.2248175 Z" id="Path" fill="#3B47BC"></path>
                <path d="M58.6816901,54.1255474 L54.084507,54.1255474 C53.543662,54.1255474 53.0929577,53.6729927 53.0929577,53.129927 L53.0929577,50.4145985 C53.0929577,49.8715328 53.543662,49.4189781 54.084507,49.4189781 L58.6816901,49.4189781 C59.943662,49.4189781 61.0253521,50.5051095 61.0253521,51.7722628 L61.0253521,51.7722628 C60.9352113,53.129927 59.943662,54.1255474 58.6816901,54.1255474 Z" id="Path" fill="#281616"></path>
                <path d="M91.3126761,42.9021898 L91.3126761,42.9021898 C92.3042254,42.9021898 93.2056338,42.0875912 93.2056338,41.0014599 L93.2056338,26.9722628 C93.2056338,25.9766423 92.3943662,25.0715328 91.3126761,25.0715328 L91.3126761,25.0715328 C90.3211268,25.0715328 89.4197183,25.8861314 89.4197183,26.9722628 L89.4197183,41.0014599 C89.4197183,42.0875912 90.3211268,42.9021898 91.3126761,42.9021898 Z" id="Path" fill="#FF8F8E"></path>
                <path d="M43.7183099,42.9021898 L43.7183099,42.9021898 C42.7267606,42.9021898 41.8253521,42.0875912 41.8253521,41.0014599 L41.8253521,26.9722628 C41.8253521,25.9766423 42.6366197,25.0715328 43.7183099,25.0715328 L43.7183099,25.0715328 C44.7098592,25.0715328 45.6112676,25.8861314 45.6112676,26.9722628 L45.6112676,41.0014599 C45.6112676,42.0875912 44.7098592,42.9021898 43.7183099,42.9021898 Z" id="Path" fill="#FF8F8E"></path>
                <path d="M98.9746479,97.9328467 C96.6309859,76.3912409 76.5295775,75.3956204 76.5295775,75.3956204 C76.5295775,81.9124088 69.4084507,84.6277372 66.7042254,84.6277372 C64,84.6277372 56.8788732,81.9124088 56.8788732,75.3956204 C56.8788732,75.3956204 36.7774648,76.3007299 34.4338028,97.9328467 C34.4338028,97.9328467 32.5408451,116.216058 32.0901408,123.275912 L66.1633803,123.275912 L67.0647887,123.275912 L101.138028,123.275912 C100.867606,116.216058 98.9746479,97.9328467 98.9746479,97.9328467 Z" id="Path" fill="#3B47BC"></path>
            </g>
            <g id="Woman" transform="translate(27.000000, 85.000000)">
                <path d="M75.2985507,34.5123762 C78.173913,32.615099 81.1391304,30.7178218 83.115942,28.0074257 C86.2608696,23.9418317 86.9797101,18.0693069 84.9130435,13.3712871 C83.7449275,10.5705446 81.2289855,7.95049505 78.173913,7.95049505 C76.2869565,7.95049505 74.4898551,8.94430693 72.8724638,10.0284653 C65.684058,14.5457921 58.0463768,19.6955446 49.5101449,19.5148515 C47.8927536,19.5148515 46.2753623,19.2438119 44.657971,19.5148515 C41.3333333,19.9665842 38.5478261,22.4962871 36.9304348,25.4777228 C35.3130435,28.4591584 34.8637681,31.8923267 34.684058,35.325495 C34.5043478,39.210396 34.5942029,43.4566832 32.3478261,46.5284653 C30.4608696,49.0581683 27.315942,50.2326733 24.7101449,52.039604 C19.0492754,55.8341584 15.6347826,63.6943069 18.5101449,69.9282178 C19.4985507,72.0965347 21.2057971,73.9938119 21.9246377,76.2524752 C22.7333333,78.7821782 22.1942029,81.5829208 22.0144928,84.2029703 C21.8347826,86.9133663 22.1043478,89.8044554 24.0811594,91.7017327 C26.5072464,93.960396 30.3710145,93.5086634 33.515942,92.424505 C40.973913,89.894802 47.6231884,84.835396 51.9362319,78.240099 C56.2492754,71.644802 58.315942,63.5136139 57.6869565,55.6534653 L75.2985507,34.5123762 Z" id="Path" fill="#281616"></path>
                <path d="M68.2898551,45.0829208 L68.2898551,45.3539604 L68.9188406,52.8527228 L69.6376812,61.5259901 L52.5652174,60.1707921 L52.5652174,35.0544554 C52.5652174,35.0544554 42.6811594,27.8267327 46.0057971,22.4962871 C49.3304348,17.2561881 59.8434783,12.5581683 59.8434783,12.5581683 L79.5217391,11.2029703 C79.5217391,11.3836634 82.1275362,42.4628713 68.2898551,45.0829208 Z" id="Path" fill="#FFD3CA"></path>
                <path d="M43.5797101,19.9665842 C45.1072464,21.7735149 48.0724638,22.0445545 50.3188406,22.8576733 C53.373913,23.8514851 56.6985507,24.664604 59.9333333,24.3032178 C65.8637681,23.6707921 72.9623188,19.9665842 77.1855072,15.720297 C79.2521739,13.6423267 81.3188406,10.1188119 80.1507246,7.40841584 C79.2521739,5.33044554 75.8376812,1.44554455 72.6927536,0.722772277 C62.8086957,-1.44554455 51.6666667,1.80693069 46.0057971,11.2029703 C44.4782609,13.7326733 43.5797101,19.9665842 43.5797101,19.9665842 Z" id="Path" fill="#281616"></path>
                <path d="M122.562319,178.163366 L123.101449,188.914604 C123.101449,188.914604 121.214493,188.011139 120.765217,186.565594 L119.597101,180.42203 L117.530435,176.175743 L118.878261,181.054455 L118.968116,190.360149 C118.968116,190.360149 117.62029,190.179455 116.631884,188.011139 L116.092754,181.957921 L114.655072,177.80198 L115.014493,182.048267 L115.194203,188.553218 C115.194203,188.553218 114.295652,188.101485 113.936232,187.740099 C113.217391,186.92698 112.768116,186.294554 112.498551,183.584158 L111.24058,178.07302 L110.611594,182.680693 L110.431884,184.035891 C110.431884,184.035891 109.263768,183.222772 108.814493,181.144802 C108.455072,179.066832 108.724638,176.446782 108.724638,176.446782 C108.724638,176.446782 103.872464,167.773515 106.118841,161.449257 L97.2231884,149.071782 L95.1565217,146.27104 L87.7884058,136.242574 L91.3826087,121.335396 L92.9101449,115.282178 L98.4811594,126.936881 L114.205797,159.461634 L121.034783,167.683168 L123.191304,173.64604 C123.191304,173.64604 121.663768,174.820545 119.327536,172.471535 L122.562319,178.163366 Z" id="Path" fill="#FFD3CA"></path>
                <polygon id="Path" fill="#F9B2B2" points="98.4811594 126.846535 97.2231884 149.071782 95.1565217 146.27104 91.3826087 121.335396 92.9101449 115.191832"></polygon>
                <path d="M93.4492754,114.017327 L94.5275362,133.532178 L49.2405797,133.532178 C49.2405797,133.532178 49.3304348,132.17698 49.4202899,129.918317 C49.4202899,129.195545 49.4202899,128.292079 49.5101449,127.388614 C49.6,123.955446 49.6,119.438119 49.2405797,114.469059 C49.1507246,113.565594 49.0608696,112.571782 48.9710145,111.57797 C48.342029,104.892327 47.173913,97.664604 44.8376812,91.7017327 C44.7478261,91.5210396 44.7478261,91.4306931 44.657971,91.25 L43.0405797,105.434406 L21.6550725,105.07302 C21.6550725,105.07302 28.2144928,70.7413366 33.515942,64.7784653 C33.515942,64.7784653 37.4695652,56.8279703 52.5652174,54.8403465 C52.5652174,54.8403465 63.0782609,60.8032178 69.0086957,54.8403465 C69.0086957,54.8403465 88.057971,71.3737624 93.2695652,76.6138614 C93.2695652,76.6138614 96.1449275,77.0655941 94.5275362,97.5742574 C94.4376812,99.1101485 94.257971,100.736386 94.0782609,102.543317 C93.8985507,104.079208 93.7188406,105.795792 93.5391304,107.512376 C93.4492754,108.415842 93.3594203,109.409653 93.1797101,110.403465 L93.4492754,114.017327 Z" id="Path" fill="#FF8685"></path>
                <path d="M93.6289855,107.602723 C93.5391304,108.506188 93.4492754,109.5 93.2695652,110.493812 L93.4492754,114.017327 L78.173913,117.450495 L49.4202899,129.918317 C49.4202899,129.195545 49.4202899,128.292079 49.5101449,127.388614 C49.6,123.955446 49.6,119.438119 49.2405797,114.469059 L94.1681159,102.543317 C93.9884058,104.169554 93.8086957,105.886139 93.6289855,107.602723 Z" id="Path" fill="#EF6C6C"></path>
                <path d="M54.8115942,112.029703 C54.0927536,118.805693 53.284058,130.09901 53.1043478,133.532178 L49.3304348,133.532178 C49.3304348,133.532178 49.4202899,132.17698 49.5101449,129.918317 C49.5101449,129.195545 49.5101449,128.292079 49.6,127.388614 C49.6898551,123.955446 49.6898551,119.438119 49.3304348,114.469059 C49.2405797,113.565594 49.1507246,112.571782 49.0608696,111.57797 C48.4318841,104.892327 47.2637681,97.664604 44.9275362,91.7017327 L45.0173913,90.2561881 C44.9275362,90.3465347 55.7101449,103.898515 54.8115942,112.029703 Z" id="Path" fill="#EF6C6C"></path>
                <polygon id="Path" fill="#281616" points="101.176812 109.138614 87.3391304 109.138614 91.9217391 78.7821782 105.75942 78.7821782"></polygon>
                <path d="M97.2231884,99.200495 C97.2231884,99.200495 96.5942029,104.530941 95.2463768,106.428218 C94.9768116,106.87995 94.3478261,107.241337 93.6289855,107.512376 C92.0115942,108.235149 89.5855072,108.596535 87.9681159,108.867574 C86.8898551,109.048267 86.0811594,109.048267 86.0811594,109.048267 C84.1043478,109.680693 74.9391304,112.391089 74.9391304,112.391089 L49.5101449,127.388614 L44.657971,130.279703 C31.5391304,139.49505 26.5971014,131.273515 26.5971014,131.273515 C21.2956522,126.394802 22.1942029,112.391089 23.0028986,105.344059 C23.0028986,105.253713 23.0028986,105.253713 23.0028986,105.163366 L42.5913043,105.163366 L41.6028986,110.674505 L40.973913,114.107673 L48.8811594,111.668317 L74.1304348,103.898515 C81.6782609,97.9356436 84.8231884,96.3997525 85.6318841,96.0383663 C85.8115942,95.9480198 85.9014493,95.9480198 85.9014493,95.9480198 C89.9449275,96.2190594 92.6405797,97.0321782 94.4376812,97.7549505 C96.5043478,98.4777228 97.2231884,99.200495 97.2231884,99.200495 Z" id="Path" fill="#FFD3CA"></path>
                <path d="M81.4086957,338.347772 C81.4086957,338.347772 81.4086957,352.893564 81.4086957,352.261139 C81.4086957,351.628713 69.5478261,352.261139 69.5478261,352.261139 L69.5478261,338.347772 L81.4086957,338.347772 Z" id="Path" fill="#FFD3CA"></path>
                <path d="M109.713043,364.096535 C109.713043,364.096535 110.342029,361.476485 103.153623,358.856436 C95.9652174,356.236386 81.4985507,352.261139 81.4985507,352.261139 L69.6376812,352.261139 C69.6376812,352.261139 65.684058,359.488861 66.3130435,364.186881 L109.713043,364.186881 L109.713043,364.096535 Z" id="Path" fill="#3B47BC"></path>
                <polygon id="Path" fill="#FFD3CA" points="23.6318841 338.347772 23.0028986 350.905941 12.4898551 350.905941 12.4898551 338.347772"></polygon>
                <path d="M0.628985507,364.096535 C0.628985507,364.096535 6.55942029,353.52599 12.4898551,350.905941 L23.6318841,350.905941 C23.6318841,350.905941 21.6550725,355.513614 23.6318841,357.501238 C25.6086957,359.488861 26.2376812,364.096535 26.2376812,364.096535 L0.628985507,364.096535 L0.628985507,364.096535 Z" id="Path" fill="#3B47BC"></path>
                <path d="M84.7333333,341.600248 L67.6608696,341.600248 L67.6608696,249.808168 L63.0782609,187.017327 L69.9971014,165.514851 L94.6173913,133.441832 C94.6173913,133.441832 103.153623,182.319307 92.6405797,240.412129 L84.7333333,341.600248 Z" id="Path" fill="#281616"></path>
                <path d="M94.6173913,133.532178 L50.5884058,132.628713 C50.5884058,132.628713 27.5855072,138.772277 30.1913043,209.513614 C30.1913043,209.513614 26.2376812,244.477723 23.0028986,256.403465 C19.6782609,268.329208 8.53623188,341.600248 8.53623188,341.600248 L24.9797101,341.600248 L75.5681159,163.888614 C75.5681159,163.97896 89.315942,150.788366 94.6173913,133.532178 Z" id="Path" fill="#3B47BC"></path>
                <path d="M20.4869565,341.780941 L19.1391304,341.509901 C19.4985507,340.154703 51.2173913,205.538366 77.1855072,134.345297 L78.4434783,134.79703 C52.4753623,205.899752 20.7565217,340.425743 20.4869565,341.780941 Z" id="Path" fill="#D6D6D6"></path>
                <path d="M68.9188406,52.8527228 C65.684058,51.2264851 61.2811594,47.4319307 60.1130435,38.1262376 C60.1130435,38.1262376 63.0782609,42.8242574 68.3797101,45.3539604 L68.9188406,52.8527228 Z" id="Path" fill="#F9B2B2"></path>
                <path d="M97.2231884,99.200495 C97.2231884,99.200495 96.5942029,104.440594 95.2463768,106.428218 C94.9768116,106.87995 94.3478261,107.241337 93.6289855,107.512376 C92.0115942,108.235149 89.5855072,108.596535 87.9681159,108.867574 C88.3275362,103.717822 86.8,98.5680693 85.8115942,95.9480198 C85.9913043,95.8576733 86.0811594,95.8576733 86.0811594,95.8576733 C90.1246377,96.1287129 92.8202899,96.9418317 94.6173913,97.664604 C96.5043478,98.4777228 97.2231884,99.200495 97.2231884,99.200495 Z" id="Path" fill="#F9B2B2"></path>
                <path d="M42.6811594,105.163366 L41.6927536,110.674505 L23.0927536,105.344059 C23.0927536,105.253713 23.0927536,105.253713 23.0927536,105.163366 L42.6811594,105.163366 L42.6811594,105.163366 Z" id="Path" fill="#F9B2B2"></path>
            </g>
            <g id="Plane" transform="translate(0.000000, 17.000000)">
                <polygon id="Path" fill="#05365E" points="101.107985 32.1509434 125.979468 15.2150943 133.098479 17.8415094 116.157034 39.4867925"></polygon>
                <path d="M117.148289,37.4943396 C117.148289,37.4943396 116.697719,40.845283 112.011787,41.7509434 C110.29962,42.1132075 108.136882,42.1132075 105.163118,41.4792453 C105.163118,41.4792453 -2.70342205,7.15471698 0.450570342,4.89056604 C0.450570342,4.89056604 1.08136882,4.61886792 2.07262357,4.25660377 C6.578327,2.62641509 19.6448669,-1.4490566 29.7376426,2.17358491 L117.148289,37.4943396 Z" id="Path" fill="#C5D7FF"></path>
                <path d="M112.011787,41.7509434 C110.29962,42.1132075 108.136882,42.1132075 105.163118,41.4792453 C105.163118,41.4792453 -2.70342205,7.15471698 0.450570342,4.89056604 C0.450570342,4.89056604 1.08136882,4.61886792 2.07262357,4.25660377 L112.011787,41.7509434 Z" id="Path" fill="#6339FF"></path>
                <path d="M84.256654,40.2113208 C76.2365019,29.5245283 55.8707224,16.1207547 37.0368821,19.2 L88.6722433,48.2716981 C88.7623574,48.1811321 85.6984791,42.0226415 84.256654,40.2113208 Z" id="Path" fill="#05365E"></path>
                <g id="Group" transform="translate(115.346008, 44.377358)" fill="#000000">
                    <path d="M1.17148289,4.16603774 C0.720912548,1.90188679 0.630798479,0.543396226 0.630798479,0.452830189 L1.98250951,0.362264151 C1.98250951,0.362264151 2.07262357,1.72075472 2.43307985,3.89433962 L1.17148289,4.16603774 Z" id="Path"></path>
                    <path d="M89.7536122,98.6264151 C89.1228137,98.6264151 88.4920152,98.6264151 87.8612167,98.6264151 L87.9513308,97.2679245 C90.4745247,97.3584906 92.8174905,97.2679245 95.0703422,96.9962264 L95.2505703,98.354717 C93.448289,98.5358491 91.6460076,98.6264151 89.7536122,98.6264151 Z M80.5619772,97.9018868 C78.3091255,97.5396226 75.8760456,97.0867925 73.3528517,96.4528302 L73.713308,95.0943396 C76.1463878,95.7283019 78.4893536,96.1811321 80.7422053,96.5433962 L80.5619772,97.9018868 Z M102.369582,96.7245283 L101.919011,95.4566038 C104.171863,94.6415094 106.334601,93.645283 108.226996,92.2867925 L108.947909,93.3735849 C107.055513,94.7320755 104.802662,95.909434 102.369582,96.7245283 Z M66.3239544,94.4603774 C65.3326996,94.0981132 64.3414449,93.8264151 63.260076,93.4641509 C63.169962,93.4641509 61.818251,92.9207547 59.4752852,92.2867925 L59.7456274,90.9283019 C62.2688213,91.5622642 63.7106464,92.1056604 63.7106464,92.1056604 C64.7019011,92.4679245 65.6931559,92.7396226 66.6844106,93.1018868 L66.3239544,94.4603774 Z M31.2695817,94.1886792 L30.8190114,92.9207547 C33.1619772,92.1056604 35.504943,91.3811321 37.8479087,90.9283019 L38.118251,92.2867925 C35.8653992,92.6490566 33.5224335,93.3735849 31.2695817,94.1886792 Z M52.4463878,91.2 C50.1034221,91.0188679 47.6703422,91.0188679 45.3273764,91.2 L45.2372624,89.8415094 C47.6703422,89.6603774 50.1935361,89.6603774 52.626616,89.8415094 L52.4463878,91.2 Z M114.444867,88.3924528 L113.363498,87.5773585 C114.805323,85.7660377 116.06692,83.7735849 117.058175,81.509434 L118.319772,82.0528302 C117.328517,84.3169811 116.06692,86.490566 114.444867,88.3924528 Z M120.572624,74.8981132 L119.220913,74.6264151 C119.491255,72.9962264 119.581369,72 119.581369,71.909434 C119.581369,71.5471698 119.581369,71.1849057 119.581369,70.8226415 C119.581369,69.7358491 119.581369,68.5584906 119.491255,67.5622642 L120.842966,67.4716981 C120.93308,68.5584906 120.93308,69.7358491 120.93308,70.8226415 C120.93308,71.1849057 120.93308,71.6377358 120.93308,72 C120.93308,72.090566 120.93308,73.1773585 120.572624,74.8981132 Z M118.5,60.4981132 C117.869202,58.1433962 117.058175,55.8792453 116.06692,53.8867925 L117.238403,53.2528302 C118.319772,55.3358491 119.220913,57.690566 119.851711,60.2264151 L118.5,60.4981132 Z M111.921673,48 C110.389734,46.2792453 108.497338,44.7396226 106.514829,43.4716981 L107.235741,42.2943396 C109.398479,43.6528302 111.290875,45.2830189 112.912928,47.0037736 L111.921673,48 Z M100.11673,40.3924528 C97.9539924,39.5773585 95.7011407,38.9433962 93.2680608,38.490566 L93.538403,37.1320755 C96.061597,37.5849057 98.4045627,38.309434 100.657414,39.1245283 L100.11673,40.3924528 Z M51.1847909,40.3018868 C50.8243346,40.3018868 50.4638783,40.3018868 50.1034221,40.3018868 L50.1034221,38.9433962 C52.4463878,38.9433962 54.8794677,38.9433962 57.3125475,38.7622642 L57.4026616,40.1207547 C55.239924,40.3018868 53.1673004,40.3018868 51.1847909,40.3018868 Z M42.7140684,39.8490566 C40.1908745,39.5773585 37.7577947,39.2150943 35.504943,38.6716981 L35.7752852,37.3132075 C38.0281369,37.8566038 40.3711027,38.2188679 42.8942966,38.490566 L42.7140684,39.8490566 Z M64.6117871,39.3962264 L64.4315589,38.0377358 C66.7745247,37.7660377 69.1174905,37.3132075 71.5505703,36.8603774 L71.8209125,38.2188679 C69.2977186,38.6716981 66.9547529,39.1245283 64.6117871,39.3962264 Z M86.1490494,37.5849057 C83.8060837,37.4037736 81.3730038,37.4037736 78.939924,37.4943396 L78.8498099,36.1358491 C81.2828897,36.045283 83.8060837,36.045283 86.1490494,36.2264151 L86.1490494,37.5849057 Z M28.4760456,36.5886792 C26.1330798,35.6830189 23.8802281,34.6867925 21.8076046,33.509434 L22.438403,32.3320755 C24.4209125,33.509434 26.6737643,34.5056604 28.926616,35.3207547 L28.4760456,36.5886792 Z M15.769962,29.2528302 C13.8775665,27.7132075 12.1653992,25.9018868 10.543346,24 L11.6247148,23.0943396 C13.156654,24.9056604 14.8688213,26.6264151 16.6711027,28.1660377 L15.769962,29.2528302 Z M6.30798479,18.0226415 C5.1365019,15.9396226 4.05513308,13.6754717 3.1539924,11.3207547 L4.41558935,10.8679245 C5.22661597,13.1320755 6.30798479,15.3056604 7.47946768,17.3886792 L6.30798479,18.0226415 Z" id="Shape"></path>
                    <path d="M21.5372624,98.8075472 L20.8163498,97.6301887 C21.8977186,96.9962264 22.9790875,96.3622642 23.9703422,95.8188679 L24.6011407,96.9962264 C23.6098859,97.6301887 22.5285171,98.2641509 21.5372624,98.8075472 Z" id="Path"></path>
                </g>
            </g>
        </g>
    </g>
</svg>