<?xml version="1.0" encoding="UTF-8"?>
<svg width="414px" height="896px" viewBox="0 0 414 896" version="1.1" xmlns="http://www.w3.org/2000/svg" xmlns:xlink="http://www.w3.org/1999/xlink">
    <!-- Generator: Sketch 62 (91390) - https://sketch.com -->
    <title>Travel App 3</title>
    <desc>Created with Sketch.</desc>
    <defs>
        <filter x="-16.2%" y="-99.1%" width="132.3%" height="298.1%" filterUnits="objectBoundingBox" id="filter-1">
            <feOffset dx="0" dy="7" in="SourceAlpha" result="shadowOffsetOuter1"></feOffset>
            <feGaussianBlur stdDeviation="10" in="shadowOffsetOuter1" result="shadowBlurOuter1"></feGaussianBlur>
            <feColorMatrix values="0 0 0 0 0.886238694   0 0 0 0 0.288655698   0 0 0 0 0.288655698  0 0 0 0.299688593 0" type="matrix" in="shadowBlurOuter1" result="shadowMatrixOuter1"></feColorMatrix>
            <feMerge>
                <feMergeNode in="shadowMatrixOuter1"></feMergeNode>
                <feMergeNode in="SourceGraphic"></feMergeNode>
            </feMerge>
        </filter>
    </defs>
    <g id="Travel-App-3" stroke="none" stroke-width="1" fill="none" fill-rule="evenodd">
        <rect id="Rectangle" fill="#FFFFFF" x="0" y="0" width="414" height="896" rx="40"></rect>
        <g id="Menikmati_liburan" transform="translate(34.000000, 102.000000)" fill-rule="nonzero">
            <g id="Tree">
                <path d="M153.973414,82.7382664 C153.973414,82.7382664 152.178852,84.351797 149.038369,87.7581395 C148.858912,87.9374207 148.679456,88.2063425 148.410272,88.3856237 C148.05136,88.744186 147.692447,89.1027484 147.333535,89.5509514 C147.333535,89.5509514 147.333535,89.5509514 147.333535,89.5509514 C145.808157,91.164482 144.103323,93.1365751 142.219033,95.4672304 C136.745619,102.010994 129.6571,110.975053 121.940483,122.62833 C121.312387,123.524736 120.774018,124.421142 120.145921,125.317548 C116.467069,130.875264 112.698489,137.060465 108.840181,143.693869 C108.212085,144.769556 107.583988,145.934884 106.866163,147.100211 C103.905136,152.389006 100.854381,158.036364 97.8933535,164.042283 C97.3549849,165.11797 96.8166163,166.193658 96.2782477,167.269345 C93.5864048,172.827061 90.8945619,178.6537 88.202719,184.74926 C87.7540785,185.824947 87.21571,186.990275 86.7670695,188.155603 C84.2546828,193.982241 81.8320242,200.077801 79.4990937,206.352643 C79.0504532,207.51797 78.6018127,208.683298 78.1531722,209.848626 C75.9099698,216.033827 73.6667674,222.398309 71.6030211,228.942072 C71.1543807,230.286681 70.7954683,231.541649 70.3468278,232.886258 C68.641994,238.354334 67.0268882,244.001691 65.5015106,249.738689 C65.1425982,251.172939 64.6939577,252.696829 64.3350453,254.131078 C62.8096677,259.957717 61.3740181,265.963636 60.0280967,272.148837 L60.0280967,272.148837 C59.6691843,273.583087 59.4,275.106977 59.0410876,276.630867 L59.0410876,276.630867 C57.7848943,282.457505 56.618429,288.463425 55.5416918,294.558985 C55.2725076,296.082875 55.0033233,297.606765 54.734139,299.130655 C53.5676737,306.032981 52.4909366,313.204228 51.5936556,320.465116 C51.4141994,321.989006 51.2347432,323.512896 51.055287,325.036786 C50.3374622,331.132347 49.6196375,337.407188 49.0812689,343.861311 C48.9018127,345.474841 48.8120846,346.998732 48.7223565,348.612262 C46.8380665,372.098097 46.2099698,397.197463 47.2867069,424 L7.26797583,424 C7.26797583,424 -0.628096677,229.928118 117.274622,95.0190275 C122.927492,88.4752643 128.939275,82.1107822 135.220242,75.9255814 C135.938066,75.2084567 136.745619,74.4016913 137.463444,73.6845666 L137.463444,73.6845666 C138.181269,72.9674419 138.899094,72.2503171 139.706647,71.5331924 L140.96284,72.4295983 L141.501208,72.7881607 L141.590937,72.8778013 L142.577946,73.6845666 L143.475227,74.4016913 L148.320544,78.0769556 L149.576737,79.0630021 L153.973414,82.7382664 Z" id="Path" fill="#D6D6D6"></path>
                <path d="M144.013595,63.9137421 C144.013595,63.9137421 26.1108761,19.4520085 16.0613293,145.038478 C16.0613293,145.038478 47.1969789,89.4613108 148.5,71.7124736 L144.013595,63.9137421 Z" id="Path" fill="#60A2F9"></path>
                <path d="M0.448640483,31.643129 C0.448640483,31.643129 80.5758308,11.653277 144.013595,63.9137421 L158.459819,67.230444 C158.459819,67.230444 99.5084592,-56.1150106 0.448640483,31.643129 Z" id="Path" fill="#97C8FC"></path>
                <path d="M265.236254,33.8841438 C265.236254,33.8841438 176.225982,-23.9340381 140.603927,75.0291755 C140.603927,75.0291755 200.721752,33.8841438 265.236254,33.8841438 Z" id="Path" fill="#60A2F9"></path>
                <path d="M296.371903,156.153911 C296.371903,156.153911 247.380363,79.4215645 148.410272,75.0291755 C148.410272,75.0291755 255.276435,-18.3763214 296.371903,156.153911 Z" id="Path" fill="#97C8FC"></path>
                <path d="M144.013595,81.6625793 C144.013595,81.6625793 169.586103,99.4114165 188.518731,237.278647 C188.518731,237.278647 247.470091,138.315433 166.266163,71.622833 L144.013595,81.6625793 Z" id="Path" fill="#60A2F9"></path>
                <ellipse id="Oval" fill="#FDCD74" cx="162.856495" cy="74.4913319" rx="22.252568" ry="18.3763214"></ellipse>
                <ellipse id="Oval" fill="#FF8685" transform="translate(130.996902, 84.503738) rotate(-13.467876) translate(-130.996902, -84.503738) " cx="130.996902" cy="84.5037378" rx="18.2138282" ry="14.970762"></ellipse>
                <ellipse id="Oval" fill="#FDCD74" transform="translate(134.955903, 64.563547) rotate(-59.999272) translate(-134.955903, -64.563547) " cx="134.955903" cy="64.5635467" rx="11.0282425" ry="13.3659335"></ellipse>
                <path d="M121.940483,122.62833 C121.312387,123.524736 120.774018,124.421142 120.145921,125.317548 L111.26284,120.118393 L121.940483,122.62833 Z" id="Path" fill="#BABABA"></path>
                <path d="M108.840181,143.78351 C108.212085,144.859197 107.583988,146.024524 106.866163,147.189852 L96.0090634,140.735729 L108.840181,143.78351 Z" id="Path" fill="#BABABA"></path>
                <path d="M97.8933535,164.131924 C97.3549849,165.207611 96.8166163,166.283298 96.2782477,167.358985 L86.1389728,161.353066 L97.8933535,164.131924 Z" id="Path" fill="#BABABA"></path>
                <path d="M88.202719,184.74926 C87.7540785,185.824947 87.21571,186.990275 86.7670695,188.155603 L76.2688822,181.970402 L88.202719,184.74926 Z" id="Path" fill="#BABABA"></path>
                <path d="M79.4990937,206.352643 C79.0504532,207.51797 78.6018127,208.683298 78.1531722,209.848626 L67.2960725,203.484144 L79.4990937,206.352643 Z" id="Path" fill="#BABABA"></path>
                <path d="M71.6030211,229.031712 C71.1543807,230.376321 70.7954683,231.63129 70.3468278,232.975899 L58.3232628,225.894292 L71.6030211,229.031712 Z" id="Path" fill="#BABABA"></path>
                <path d="M65.5015106,249.91797 C65.1425982,251.35222 64.6939577,252.87611 64.3350453,254.310359 L51.1450151,246.511628 L65.5015106,249.91797 Z" id="Path" fill="#BABABA"></path>
                <path d="M60.0280967,272.238478 L60.0280967,272.238478 C59.6691843,273.762368 59.4,275.196617 59.0410876,276.720507 L45.7613293,268.921776 L60.0280967,272.238478 Z" id="Path" fill="#BABABA"></path>
                <path d="M55.5416918,294.648626 C55.2725076,296.172516 55.0033233,297.696406 54.734139,299.220296 L41.2749245,291.331924 L55.5416918,294.648626 Z" id="Path" fill="#BABABA"></path>
                <path d="M51.5936556,320.554757 C51.4141994,322.078647 51.2347432,323.602537 51.055287,325.126427 L37.6858006,317.327696 L51.5936556,320.554757 Z" id="Path" fill="#BABABA"></path>
                <path d="M49.0812689,343.950951 C48.9018127,345.564482 48.8120846,347.088372 48.7223565,348.701903 L35.0836858,340.634249 L49.0812689,343.950951 Z" id="Path" fill="#BABABA"></path>
            </g>
            <g id="Chair" transform="translate(0.000000, 215.000000)">
                <path d="M194.212403,209.114468 L150.814987,133.872766 L158.884755,129.20383 L202.282171,204.445532 C203.089147,205.882128 202.640827,207.677872 201.206202,208.485957 L198.247287,210.191915 C196.812661,211 195.01938,210.461277 194.212403,209.114468 Z" id="Path" fill="#3B47BC"></path>
                <path d="M306.651163,207.677872 L263.253747,132.43617 L271.323514,127.767234 L314.72093,203.008936 C315.527907,204.445532 315.079587,206.241277 313.644961,207.049362 L310.686047,208.755319 C309.251421,209.563404 307.45814,209.024681 306.651163,207.677872 Z" id="Path" fill="#3B47BC"></path>
                <path d="M0,208.39617 L36.6726098,159.911064 L137.993023,130.011915 L326.108269,5.29744681 L338.66124,6.37489362 C344.668734,6.91361702 348.165633,13.4680851 345.296382,18.7655319 L281.724548,135.758298 L169.285788,137.194894 L129.116279,202.021277 C126.605685,205.971915 122.301809,208.39617 117.639276,208.39617 L0,208.39617 L0,208.39617 Z" id="Path" fill="#60A2F9"></path>
                <path d="M335.164341,16.5208511 L271.771835,121.482128 L235.278553,122.649362 L216.180103,123.188085 L214.476486,123.277872 L169.55478,124.624681 L132.344186,125.791915 L226.222481,0.359148936 L329.246512,5.47702128 C334.805685,5.65659574 338.033592,11.7621277 335.164341,16.5208511 Z" id="Path" fill="#EAEAEA"></path>
                <path d="M6.36614987,200.494894 L64.7374677,122.110638 L170.003101,122.110638 L121.136176,194.928085 C118.80491,198.429787 114.85969,200.494894 110.645478,200.494894 L6.36614987,200.494894 L6.36614987,200.494894 Z" id="Path" fill="#EAEAEA"></path>
                <path d="M165.071576,134.231915 C166.506202,134.231915 193.49509,164.131064 246.217571,134.231915 L165.071576,134.231915 Z" id="Path" fill="#60A2F9"></path>
            </g>
            <g id="Woman_3_" transform="translate(28.000000, 204.000000)">
                <path d="M88.9353535,146.966798 L48.3636364,179.44664 C48.3636364,179.44664 50.1548822,188.418972 41.1986532,194.699605 C32.2424242,200.980237 2.41818182,219.014625 2.41818182,219.014625 L35.8249158,179.44664 L85.0841751,135.482213 L88.9353535,146.966798 Z" id="Path" fill="#D6D6D6"></path>
                <path d="M203.485522,37.0557312 C200.350842,35.0818182 197.216162,33.0181818 194.977104,30.0573123 C191.6633,25.6608696 190.857239,19.3802372 193.006734,14.2660079 C194.260606,11.215415 196.947475,8.43399209 200.261279,8.43399209 C202.321212,8.43399209 204.20202,9.51067194 205.993266,10.6770751 C213.785185,15.5221344 222.024916,21.0849802 231.249832,20.9055336 C233.041077,20.9055336 234.742761,20.6363636 236.534007,20.9055336 C240.116498,21.4438735 243.161616,24.1355731 244.8633,27.3656126 C246.564983,30.5956522 247.102357,34.2743083 247.281481,37.9529644 C247.460606,42.1699605 247.371044,46.6561265 249.878788,49.9758893 C251.938721,52.6675889 255.252525,54.0134387 258.118519,55.8976285 C264.298316,60.0249012 267.880808,68.4588933 264.746128,75.1881423 C263.67138,77.5209486 261.790572,79.584585 260.984512,82.0071146 C260.088889,84.7885375 260.626263,87.7494071 260.805387,90.6205534 C260.984512,93.4916996 260.626263,96.7217391 258.56633,98.6956522 C255.969024,101.118182 251.759596,100.669565 248.445791,99.5031621 C240.385185,96.8114625 233.220202,91.3383399 228.562963,84.2501976 C223.905724,77.1620553 221.666667,68.36917 222.383165,59.9351779 L203.485522,37.0557312 Z" id="Path" fill="#281616"></path>
                <path d="M211.008754,48.4505929 L211.008754,48.7197628 L210.381818,56.7948617 L209.66532,66.2158103 L228.115152,64.7802372 L228.115152,37.7735178 C228.115152,37.7735178 238.773064,29.9675889 235.190572,24.2252964 C231.608081,18.5727273 220.323232,13.5482213 220.323232,13.5482213 L199.007407,12.1126482 C199.007407,12.2023715 196.141414,45.66917 211.008754,48.4505929 Z" id="Path" fill="#FFD3CA"></path>
                <path d="M237.787879,21.4438735 C236.175758,23.4177866 232.951515,23.6869565 230.443771,24.4944664 C227.129966,25.5711462 223.637037,26.4683794 220.054545,26.1094862 C213.606061,25.4814229 205.993266,21.4438735 201.425589,16.8679842 C199.186532,14.6249012 196.947475,10.8565217 198.290909,7.89565217 C199.276094,5.65256917 202.948148,1.52529644 206.351515,0.717786561 C217.09899,-1.61501976 229.100337,1.88418972 235.190572,12.0229249 C236.802694,14.8043478 237.787879,21.4438735 237.787879,21.4438735 Z" id="Path" fill="#281616"></path>
                <path d="M210.381818,56.884585 C213.874747,55.1798419 218.621549,51.0525692 219.964983,41.0035573 C219.964983,41.0035573 216.740741,46.0280632 211.098316,48.8094862 L210.381818,56.884585 Z" id="Path" fill="#F9B2B2"></path>
                <path d="M251.580471,97.2600791 L249.96835,97.798419 L232.951515,103.450988 L230.175084,104.348221 L227.309091,91.5177866 L226.771717,92.5944664 L217.725926,111.256917 L210.919192,125.433202 L207.157576,133.23913 L186.379125,133.867194 C186.558249,132.521344 186.647811,130.457708 186.379125,128.035178 C185.752189,122.203162 182.975758,114.30751 173.30303,108.654941 L154.853199,94.3889328 C154.853199,94.3889328 194.618855,54.5517787 210.292256,57.3332016 C210.292256,57.3332016 211.725253,64.4213439 224.53266,60.2043478 C224.53266,60.2043478 235.907071,51.6806324 241.639057,63.0754941 L251.580471,97.2600791 Z" id="Path" fill="#FF8685"></path>
                <path d="M192.558923,103.630435 L184.050505,70.8814229 C184.050505,70.8814229 169.810101,60.9221344 155.659259,69.4458498 C155.659259,69.4458498 147.150842,62.3577075 135.776431,69.4458498 L135.776431,70.8814229 L147.150842,93.6711462 L190.140741,104.437945 L192.558923,103.630435 Z" id="Path" fill="#D6D6D6"></path>
                <path d="M227.398653,88.556917 L226.861279,92.5944664 L217.815488,111.256917 L211.008754,125.433202 L207.247138,133.23913 L186.468687,133.867194 C186.647811,132.521344 186.737374,130.457708 186.468687,128.035178 C209.934007,117.986166 225.876094,92.773913 227.398653,88.556917 Z" id="Path" fill="#EF6C6C"></path>
                <path d="M190.409428,104.348221 L168.914478,108.116601 L166.317172,108.565217 L166.227609,108.475494 L145.001347,95.7347826 L135.059933,71.5094862 C141.866667,68.1 148.136027,68.8177866 152.076768,69.8944664 C153.957576,70.4328063 155.211448,70.9711462 155.927946,71.3300395 L155.927946,71.3300395 C156.196633,71.5094862 156.375758,71.5992095 156.375758,71.5992095 C170.616162,64.5110672 181.990572,73.0347826 181.990572,73.0347826 L190.409428,104.348221 Z" id="Path" fill="#FDCD74"></path>
                <path d="M247.729293,143.557312 C239.937374,140.865613 228.025589,135.66166 211.098316,125.433202 C206.709764,122.831225 201.962963,119.870356 196.857912,116.46087 L188.349495,110.8083 C188.349495,110.8083 179.035017,106.142688 175.183838,98.8750988 C174.46734,97.529249 174.377778,96.0039526 175.094276,94.6581028 L175.273401,94.2992095 C176.348148,92.2355731 178.497643,91.06917 180.826263,91.3383399 L188.349495,92.3252964 L184.050505,89.4541502 C184.050505,89.4541502 186.020875,87.0316206 189.245118,88.1980237 L193.991919,90.8897233 L196.857912,102.284585 L217.905051,111.34664 L236.623569,119.421739 L232.951515,103.540711 L232.951515,103.540711 L249.878788,97.8881423 L251.849158,108.116601 L257.133333,135.39249 C258.297643,140.775889 253.013468,145.351779 247.729293,143.557312 Z" id="Path" fill="#FFD3CA"></path>
                <path d="M152.793266,133.5083 L145.270034,132.790514 L119.834343,130.367984 L117.595286,130.188538 L107.385185,129.201581 L81.7703704,140.596443 L71.6498316,150.017391 L40.5717172,178.998024 C40.5717172,178.998024 44.8707071,183.304743 40.5717172,187.521739 C36.2727273,191.828458 0.806060606,220.270751 0.806060606,220.270751 C0.806060606,220.270751 -0.626936027,214.618182 3.67205387,207.440316 L29.2868687,173.255731 C29.2868687,173.255731 66.2760943,113.410277 78.9939394,100.669565 C86.3380471,93.312253 92.2491582,92.5047431 96.0107744,93.2225296 C98.7872054,93.6711462 100.309764,95.016996 100.309764,95.016996 L102.369697,96.5422925 L129.775758,116.550593 L143.747475,126.689328 L152.793266,133.5083 Z" id="Path" fill="#FFD3CA"></path>
                <path d="M125.387205,127.407115 L92.2491582,176.754941 C92.2491582,176.754941 98.5185185,184.83004 92.2491582,192.905138 C85.979798,200.980237 64.3057239,219.014625 64.3057239,219.014625 L83.2929293,159.70751 L107.474747,123.818182 L125.387205,127.407115 Z" id="Path" fill="#D6D6D6"></path>
                <polygon id="Path" fill="#281616" points="145.180471 132.790514 117.505724 130.278261 123.59596 114.30751 129.596633 116.640316 142.135354 121.485375 143.56835 126.779051"></polygon>
                <path d="M125.028956,117.178656 L119.744781,130.457708 L117.505724,130.278261 L107.295623,129.291304 L81.6808081,140.686166 L66.2760943,155.221344 L95.8316498,93.312253 C98.6080808,93.7608696 100.13064,95.1067194 100.13064,95.1067194 L102.190572,96.6320158 L125.028956,117.178656 Z" id="Path" fill="#F9B2B2"></path>
                <path d="M168.914478,108.116601 L166.317172,108.565217 L166.227609,108.475494 L152.076768,69.8944664 C153.957576,70.4328063 155.211448,70.9711462 155.927946,71.3300395 L155.927946,71.3300395 L168.914478,108.116601 Z" id="Path" fill="#E8B158"></path>
                <path d="M130.940067,125.792095 L119.744781,115.92253 C119.744781,115.92253 101.563636,150.645455 83.1138047,177.741897 C83.1138047,177.741897 90.1892256,184.83004 85.979798,190.572332 L58.9319865,226.19249 C58.9319865,226.19249 56.0659933,220.539921 58.9319865,209.145059 C61.7979798,197.750198 67.440404,180.702767 67.440404,180.702767 C67.440404,180.702767 91.6222222,100.938735 100.13064,89.5438735 C108.639057,78.1490119 110.072054,79.584585 117.147475,79.584585 C122.700337,79.584585 141.866667,88.1083004 150.19596,91.9664032 C152.614141,93.1328063 154.1367,93.7608696 154.1367,93.7608696 C154.1367,93.7608696 176.169024,108.744664 182.527946,116.550593 C187.095623,121.933992 130.940067,125.792095 130.940067,125.792095 Z" id="Path" fill="#FFD3CA"></path>
                <path d="M188.17037,133.77747 L186.468687,133.867194 L141.59798,135.213043 L130.940067,125.702372 L150.285522,91.7869565 C152.703704,92.9533597 154.226263,93.5814229 154.226263,93.5814229 C154.226263,93.5814229 176.258586,108.565217 182.617508,116.371146 C186.289562,120.947036 187.722559,130.547431 188.17037,133.77747 Z" id="Path" fill="#3B47BC"></path>
                <path d="M185.841751,134.136364 C176.169024,124.446245 143.837037,103.809881 143.56835,103.540711 L144.284848,102.374308 C145.628283,103.181818 176.975084,123.279842 186.826936,133.149407 L185.841751,134.136364 Z" id="Path" fill="#D6D6D6"></path>
                <polygon id="Path" fill="#F9B2B2" points="251.938721 107.937154 233.041077 103.450988 249.96835 97.798419"></polygon>
            </g>
            <g id="Cloud" transform="translate(81.000000, 161.000000)" fill="#EAEAEA">
                <path d="M89.4944882,65.1972973 C87.9685039,59.1324324 80.4283465,55.4756757 74.6834646,58.0621622 C70.6440945,48.072973 59.0645669,42.2756757 48.3826772,43.3459459 C37.6110236,44.4162162 28.096063,51.5513514 22.4409449,60.7378378 C15.9779528,54.9405405 4.30866142,57.6162162 0,65.1081081 L89.4944882,65.1972973 Z" id="Path"></path>
                <path d="M153.496063,18.8189189 C154.752756,13.8243243 161.03622,10.7027027 165.793701,12.8432432 C169.114961,4.54864865 178.719685,-0.267567568 187.696063,0.624324324 C196.672441,1.51621622 204.571654,7.49189189 209.329134,15.072973 C214.714961,10.2567568 224.409449,12.4864865 228,18.7297297 L153.496063,18.8189189 Z" id="Path"></path>
            </g>
        </g>
        <g id="Misc/Big-Button" filter="url(#filter-1)" transform="translate(44.000000, 803.000000)">
            <path d="M26.5,0 L298.5,0 C313.135546,-2.68850616e-15 325,11.8644541 325,26.5 C325,41.1355459 313.135546,53 298.5,53 L26.5,53 C11.8644541,53 1.79233744e-15,41.1355459 0,26.5 C-8.8977648e-15,11.8644541 11.8644541,2.68850616e-15 26.5,0 Z" id="Background" fill="#F85D6D"></path>
            <text id="Get-Started" font-family="SFProDisplay-Semibold, SF Pro Display" font-size="17" font-weight="500" letter-spacing="0.5" fill="#FFFFFF">
                <tspan x="117.235352" y="33">Get Started</tspan>
            </text>
        </g>
        <text id="Enjoy-The-Holiday" font-family="PlayfairDisplay-Black, Playfair Display" font-size="32" font-weight="700" fill="#131415">
            <tspan x="73.3125" y="629">Enjoy The Holiday</tspan>
        </text>
        <text id="Our-new-service-make" font-family="Muli-SemiBold, Muli" font-size="16" font-weight="500" line-spacing="26" letter-spacing="0.5" fill="#7E8795">
            <tspan x="44" y="702">Our new service makes it easy for you to </tspan>
            <tspan x="44" y="728">work anywhere, there are new features </tspan>
            <tspan x="44" y="754">will really help you.</tspan>
        </text>
    </g>
</svg>