<?xml version="1.0" encoding="UTF-8"?>
<svg width="414px" height="896px" viewBox="0 0 414 896" version="1.1" xmlns="http://www.w3.org/2000/svg" xmlns:xlink="http://www.w3.org/1999/xlink">
    <!-- Generator: Sketch 62 (91390) - https://sketch.com -->
    <title>Travel App 2</title>
    <desc>Created with Sketch.</desc>
    <defs>
        <filter x="-70.0%" y="-99.1%" width="240.0%" height="298.1%" filterUnits="objectBoundingBox" id="filter-1">
            <feOffset dx="0" dy="7" in="SourceAlpha" result="shadowOffsetOuter1"></feOffset>
            <feGaussianBlur stdDeviation="10" in="shadowOffsetOuter1" result="shadowBlurOuter1"></feGaussianBlur>
            <feColorMatrix values="0 0 0 0 0.886238694   0 0 0 0 0.288655698   0 0 0 0 0.288655698  0 0 0 0.299688593 0" type="matrix" in="shadowBlurOuter1" result="shadowMatrixOuter1"></feColorMatrix>
            <feMerge>
                <feMergeNode in="shadowMatrixOuter1"></feMergeNode>
                <feMergeNode in="SourceGraphic"></feMergeNode>
            </feMerge>
        </filter>
    </defs>
    <g id="Travel-App-2" stroke="none" stroke-width="1" fill="none" fill-rule="evenodd">
        <rect id="Rectangle" fill="#FFFFFF" x="0" y="0" width="414" height="896" rx="40"></rect>
        <g id="Menentukan_tujuan" transform="translate(94.000000, 77.000000)" fill-rule="nonzero">
            <g id="Map" transform="translate(9.000000, 0.000000)">
                <polygon id="Path" fill="#211D21" points="159.740741 39.7634409 115.759259 1.47956989 73.1666667 39.7634409 72.5185185 39.0236559 115.759259 0.184946237 160.388889 39.0236559"></polygon>
                <path d="M0.666666667,161.550538 L0.666666667,64.4537634 L47.8888889,37.3591398 L228.074074,37.3591398 L228.074074,158.776344 C228.074074,158.776344 229.462963,170.243011 220.944444,171.630108 L0.666666667,161.550538 Z" id="Path" fill="#EAEAEA"></path>
                <path d="M6.31481481,160.070968 L6.31481481,67.227957 L43.537037,44.3870968 L223.723082,41.5204301 L223.723082,161.458065 C223.723082,161.458065 224.092593,170.427957 209.462963,167.191398 L6.31481481,160.070968 Z" id="Path" fill="#97C8FC"></path>
                <path d="M18.8148148,70.372043 C18.1666667,69.7247312 17.2407407,71.111828 17.7037037,72.0365591 C18.1666667,72.8688172 19.0925926,73.516129 19.0925926,74.4408602 C18.3518519,74.3483871 17.4259259,74.255914 16.7777778,74.6258065 C16.1296296,74.9956989 15.8518519,76.1978495 16.5925926,76.5677419 C17.2407407,76.9376344 18.1666667,76.4752688 18.6296296,77.0301075 C18.8148148,77.3075269 18.7222222,77.6774194 18.7222222,78.0473118 C18.8148148,79.1569892 20.1111111,79.8043011 21.2222222,79.8043011 C22.3333333,79.8043011 23.4444444,79.2494624 24.5555556,79.0645161 C27.1481481,78.6021505 29.6481481,79.8967742 31.962963,81.1913978 C34.0925926,82.3935484 36.2222222,83.5032258 38.4444444,84.7053763 C38.9074074,84.9827957 39.3703704,85.1677419 39.5555556,85.6301075 C39.8333333,86.0924731 39.8333333,86.5548387 39.8333333,87.1096774 C40.2037037,94.6 43.8148148,101.812903 49.6481481,106.436559 C51.5,107.916129 53.537037,109.11828 55.7592593,109.765591 C57.7962963,110.32043 60.1111111,110.505376 61.5,111.984946 C62.2407407,112.724731 62.7037037,113.834409 63.7222222,114.019355 C64.1851852,114.111828 64.6481481,114.019355 65.1111111,114.111828 C66.5,114.389247 66.962963,116.23871 66.5,117.625806 C66.037037,119.012903 65.2037037,120.215054 65.0185185,121.602151 C64.7407407,125.116129 69.0925926,127.058065 70.2962963,130.387097 C70.9444444,132.236559 70.5740741,134.270968 70.1111111,136.212903 C69.462963,139.356989 68.9074074,142.408602 68.4444444,145.552688 C67.9814815,148.511828 67.9814815,152.210753 70.6666667,153.505376 C70.3888889,152.11828 70.4814815,150.63871 70.9444444,149.251613 C71.5,147.494624 72.7037037,145.922581 73.8148148,144.443011 C74.7407407,143.24086 75.7592593,142.131183 76.6851852,141.021505 C79.462963,137.784946 82.1481481,134.64086 85.2037037,131.68172 C86.037037,130.849462 86.962963,130.017204 87.5185185,128.907527 C88.1666667,127.612903 88.3518519,126.133333 88.4444444,124.653763 C88.537037,123.821505 88.537037,122.896774 88.1666667,122.156989 C87.3333333,120.492473 84.9259259,120.584946 83.2592593,119.752688 C82.4259259,119.382796 81.7777778,118.735484 81.1296296,118.180645 C79,116.331183 76.5925926,114.75914 74,113.649462 C72.1481481,112.817204 70.0185185,112.169892 68.0740741,112.632258 C67.4259259,112.817204 66.7777778,113.094624 66.037037,113.094624 C64.8333333,113.094624 63.7222222,112.262366 62.8888889,111.430108 C61.7777778,110.412903 60.7592593,109.303226 59.8333333,108.101075 C59.5555556,107.731183 59.2777778,107.36129 58.8148148,107.083871 C58.2592593,106.806452 57.7037037,106.806452 57.1481481,106.436559 C55.8518519,105.604301 56.4074074,103.477419 57.7037037,102.552688 C59.7407407,101.073118 62.8888889,101.535484 64.3703704,103.477419 C65.5740741,103.015054 64.462963,101.165591 64.6481481,99.8709677 C64.7407407,99.1311828 65.2037037,98.5763441 65.6666667,98.0215054 C67.1481481,96.3569892 68.537037,94.6 70.0185185,92.9354839 C70.4814815,92.3806452 71.037037,91.7333333 71.6851852,91.455914 C72.3333333,91.1784946 73.1666667,91.2709677 73.8148148,90.8086022 C74.3703704,90.3462366 74.1851852,89.0516129 73.537037,89.2365591 C73.1666667,87.1096774 78.2592593,87.572043 77.8888889,85.5376344 C77.7962963,85.1677419 77.5185185,84.7978495 77.2407407,84.5204301 C75.9444444,83.2258065 74.6481481,81.9311828 73.3518519,80.544086 C72.7962963,79.9892473 71.5925926,79.6193548 71.5,80.3591398 C70.3888889,79.4344086 69.0925926,78.6946237 67.7037037,78.1397849 C67.2407407,77.9548387 66.7777778,77.8623656 66.4074074,78.1397849 C66.2222222,78.3247312 66.1296296,78.6946237 66.1296296,78.972043 C66.037037,80.0817204 66.4074074,81.1913978 66.3148148,82.3010753 C66.2222222,83.4107527 65.3888889,84.6129032 64.2777778,84.6129032 C63.7222222,84.6129032 63.2592593,84.3354839 62.8888889,84.0580645 C61.1296296,82.9483871 59.3703704,81.9311828 57.6111111,80.8215054 C57.2407407,80.544086 56.7777778,80.3591398 56.5925926,79.8967742 C55.9444444,78.8795699 56.7777778,77.5849462 57.6111111,76.6602151 C58.537037,75.827957 59.5555556,74.9032258 59.5555556,73.7010753 C59.462963,72.2215054 57.7037037,71.3892473 56.2222222,71.4817204 C54.7407407,71.6666667 53.3518519,72.4064516 51.8703704,72.683871 C47.9814815,73.4236559 44.1851852,70.6494624 40.1111111,70.7419355 C38.9074074,70.7419355 37.7037037,71.0193548 36.5925926,71.2043011 C32.1481481,71.7591398 27.7037037,70.5569892 23.3518519,69.3548387 L18.8148148,70.372043 Z" id="Path" fill="#3B47BC"></path>
                <path d="M81.2222222,56.1311828 C85.5740741,55.3913978 90.0185185,55.1139785 94.3703704,55.5763441 C95.0185185,55.6688172 95.5740741,55.6688172 96.1296296,56.0387097 C96.5,56.316129 96.7777778,56.6860215 97.2407407,56.9634409 C98.7222222,57.888172 101.037037,56.316129 102.148148,57.7032258 C99.8333333,58.9053763 98.2592593,61.4021505 98.2592593,63.9913978 C98.2592593,64.7311828 98.3518519,65.4709677 98.1666667,66.2107527 C97.9814815,67.0430108 97.3333333,67.6903226 97.0555556,68.4301075 C96.7777778,69.1698925 96.7777778,70.2795699 97.5185185,70.6494624 C94.462963,71.944086 91.5,73.4236559 88.6296296,75.088172 C88.0740741,75.4580645 87.4259259,75.827957 86.962963,76.2903226 C86.037037,77.2150538 85.7592593,78.6021505 85.3888889,79.8967742 C84.7407407,79.8967742 84.2777778,79.2494624 83.9074074,78.7870968 C82.2407407,76.4752688 80.4814815,73.9784946 80.2962963,71.111828 C80.2962963,70.372043 80.2962963,69.5397849 80.0185185,68.8924731 C79.7407407,68.2451613 78.8148148,67.6903226 78.1666667,68.0602151 C77.9814815,65.655914 76.5,63.1591398 74.0925926,62.7892473 C72.7962963,62.6043011 71.2222222,62.9741935 70.4814815,61.8645161 C72.5185185,59.5526882 75.2962963,57.7956989 78.2592593,56.9634409 L81.2222222,56.1311828 Z" id="Path" fill="#3B47BC"></path>
                <path d="M129.925926,99.8709677 C128.814815,101.627957 126.222222,100.055914 124.185185,99.8709677 C122.055556,99.6860215 119.462963,101.165591 117.888889,99.5935484 C117.333333,99.0387097 117.148148,98.2064516 116.592593,97.744086 C115.944444,97.0967742 114.925926,97.0043011 114,97.0043011 C110.574074,97.0967742 107.055556,98.3913978 104.555556,100.703226 C102.055556,103.015054 100.666667,106.621505 101.037037,110.043011 C101.407407,113.187097 103.907407,116.516129 107.148148,116.23871 C109.185185,116.053763 111.314815,114.574194 113.074074,115.498925 C114.092593,115.96129 114.648148,116.978495 115.111111,117.995699 C116.12963,120.030108 117.240741,122.064516 117.425926,124.283871 C117.518519,125.578495 117.425926,126.965591 117.425926,128.260215 C117.611111,131.219355 119.092593,133.901075 120.481481,136.582796 C120.851852,137.322581 121.314815,138.154839 122.148148,138.432258 C123.444444,138.987097 124.833333,138.062366 125.851852,137.137634 C129.277778,133.808602 131.5,129.369892 132.055556,124.653763 C132.148148,123.451613 132.240741,122.156989 132.703704,120.954839 C133.62963,118.643011 136.12963,116.608602 135.388889,114.204301 C135.111111,113.464516 134.648148,112.909677 134.185185,112.354839 C131.87037,109.580645 130.388889,106.15914 130.018519,102.645161 C132.611111,103.107527 132.240741,107.083871 134,109.025806 C135.203704,110.32043 137.425926,110.412903 139.092593,109.673118 C140.759259,108.933333 142.055556,107.546237 143.259259,106.15914 C143.351852,104.956989 141.777778,104.494624 140.666667,104.217204 C139.555556,103.939785 138.166667,102.830108 138.814815,101.812903 C141.12963,102.552688 143.351852,103.292473 145.666667,104.032258 C148.166667,104.864516 150.851852,105.789247 152.240741,108.101075 C153.166667,109.673118 153.351852,111.892473 155.018519,112.724731 C156.12963,110.782796 157.333333,108.748387 159.277778,107.63871 C161.222222,106.529032 164.092593,106.621505 165.296296,108.470968 C166.407407,110.135484 165.851852,112.447312 166.777778,114.111828 C166.592593,112.817204 167.333333,111.430108 168.444444,110.782796 C168.444444,111.707527 169.37037,112.632258 170.388889,112.539785 C171.314815,112.447312 172.148148,111.522581 172.055556,110.597849 C171.962963,109.488172 170.944444,108.563441 171.222222,107.546237 C171.5,106.621505 172.796296,106.436559 173.722222,106.15914 C176.592593,105.419355 178.722222,102.645161 178.62963,99.6860215 C178.62963,98.3913978 178.351852,96.911828 179.277778,96.0795699 C180.481481,94.8774194 182.518519,96.0795699 183.722222,97.1892473 C184.092593,92.3806452 190.944444,89.3290323 190.018519,84.5204301 C189.925926,83.9655914 189.648148,83.3182796 189.833333,82.7634409 C190.018519,82.2086022 190.481481,81.8387097 190.944444,81.4688172 C193.907407,79.4344086 197.611111,78.3247312 201.314815,78.5096774 C201.777778,79.711828 200.944444,80.9139785 200.481481,82.0236559 C200.018519,83.1333333 200.018519,84.8903226 201.222222,85.2602151 C202.703704,82.3935484 205.018519,80.0817204 207.888889,78.5096774 C210.759259,76.9376344 214.555556,75.827957 215.481481,72.683871 C207.055556,72.5913978 199,68.8 190.574074,68.8 C187.703704,68.8 184.648148,69.2623656 181.962963,68.2451613 C181.037037,67.8752688 180.111111,67.4129032 179.185185,67.1354839 C176.87037,66.5806452 174.37037,67.8752688 172.240741,67.0430108 C173.166667,66.3032258 172.611111,64.7311828 171.592593,64.1763441 C170.574074,63.6215054 169.277778,63.8989247 168.166667,64.083871 C163.351852,65.0086022 158.166667,66.2107527 154.833333,69.8172043 C153.62963,71.2043011 152.611111,72.8688172 150.851852,73.3311828 C149.925926,73.6086022 148.907407,73.4236559 147.981481,73.2387097 C144.648148,72.8688172 141.222222,73.3311828 138.166667,74.6258065 C136.592593,75.2731183 135.111111,76.1053763 133.444444,76.1053763 C131.777778,76.0129032 130.018519,74.4408602 130.666667,72.8688172 C125.574074,71.0193548 119.277778,72.7763441 116.037037,77.1225806 C115.481481,77.7698925 115.018519,78.6021505 115.203704,79.4344086 C115.296296,80.2666667 116.407407,81.0064516 117.055556,80.4516129 C117.055556,81.4688172 117.333333,82.7634409 118.259259,82.9483871 C119.092593,83.1333333 119.833333,82.3935484 120.111111,81.6537634 C120.388889,80.9139785 120.296296,79.9892473 120.481481,79.2494624 C120.944444,77.4924731 122.518519,76.1978495 124.37037,76.1978495 C123.722222,77.3075269 123.074074,78.4172043 122.518519,79.4344086 C124,79.5268817 124.648148,81.4688172 124,82.7634409 C123.351852,84.0580645 121.87037,84.6129032 120.481481,84.9827957 C118.537037,85.4451613 116.5,85.6301075 114.648148,86.2774194 C112.796296,86.9247312 110.944444,88.2193548 110.296296,90.1612903 C110.018519,90.9935484 110.018519,91.9182796 109.37037,92.5655914 C108.814815,93.1204301 107.703704,93.3053763 107.518519,94.0451613 C107.148148,95.1548387 108.907407,95.8021505 109.925926,95.1548387 C110.944444,94.6 111.407407,93.3978495 112.425926,92.8430108 C113.62963,92.1032258 115.111111,92.288172 116.5,92.5655914 C119.185185,93.027957 122.240741,93.5827957 123.907407,95.8021505 C124.833333,94.4150538 126.592593,93.7677419 128.166667,94.0451613 C129.740741,94.3225806 131.12963,95.6172043 131.5,97.1892473 L129.925926,99.8709677 Z" id="Path" fill="#3B47BC"></path>
                <path d="M164.648148,115.96129 C164.555556,115.96129 164.462963,116.053763 164.37037,116.053763 C165.759259,117.995699 167.333333,119.752688 169.092593,121.324731 C169.462963,121.602151 169.833333,121.972043 170.296296,121.87957 C170.388889,121.87957 170.481481,121.787097 170.574074,121.787097 C170.666667,121.694624 170.666667,121.694624 170.666667,121.602151 C170.759259,121.047312 170.574074,120.492473 170.296296,120.030108 C170.018519,119.567742 169.648148,119.105376 169.185185,118.735484 C168.074074,117.625806 166.962963,116.423656 165.388889,116.053763 L164.648148,115.96129 Z" id="Path" fill="#3B47BC"></path>
                <path d="M170.388889,122.526882 C171.222222,122.804301 172.148148,122.989247 173.074074,123.08172 C173.537037,123.174194 174,123.266667 174.462963,123.35914 C174.925926,123.451613 175.296296,123.544086 175.759259,123.451613 C175.944444,123.451613 176.12963,123.35914 176.314815,123.35914 C176.222222,123.174194 176.037037,123.174194 175.944444,123.08172 C175.481481,122.896774 175.018519,122.619355 174.555556,122.434409 C174.277778,122.341935 174,122.341935 173.722222,122.249462 C172.981481,122.156989 172.240741,122.064516 171.592593,121.972043 L170.388889,122.526882 Z" id="Path" fill="#3B47BC"></path>
                <path d="M172.240741,117.810753 C172.240741,118.180645 172.333333,118.643011 172.518519,119.012903 C172.703704,119.567742 173.074074,120.122581 173.537037,120.307527 C173.722222,120.4 173.907407,120.4 174.092593,120.492473 C174.648148,120.584946 175.203704,120.769892 175.759259,120.862366 C175.759259,120.862366 175.851852,120.862366 175.944444,120.862366 C176.037037,120.862366 176.037037,120.769892 176.037037,120.769892 C176.314815,120.307527 176.5,119.752688 176.777778,119.290323 C176.962963,119.012903 177.055556,118.735484 177.333333,118.550538 C177.425926,118.550538 177.425926,118.458065 177.518519,118.365591 C177.611111,118.273118 177.518519,118.088172 177.425926,117.995699 C177.333333,117.71828 177.148148,117.533333 177.055556,117.255914 C176.962963,116.978495 176.962963,116.701075 177.148148,116.423656 C177.240741,116.331183 177.333333,116.23871 177.333333,116.146237 C177.425926,115.96129 177.240741,115.776344 177.148148,115.591398 C176.962963,115.313978 176.685185,114.944086 176.314815,114.851613 C175.851852,115.406452 175.481481,115.868817 175.018519,116.423656 C174.462963,117.070968 173.814815,117.71828 172.981481,117.625806 L172.240741,117.810753 Z" id="Path" fill="#3B47BC"></path>
                <path d="M177.888889,121.87957 C177.888889,121.139785 177.888889,120.307527 178.074074,119.567742 C178.166667,119.290323 178.166667,119.012903 178.351852,118.827957 C178.444444,118.735484 178.62963,118.550538 178.722222,118.458065 C179.37037,117.995699 180.203704,117.810753 181.037037,117.903226 C181.12963,117.903226 181.314815,117.903226 181.407407,117.995699 C181.5,118.088172 181.592593,118.273118 181.5,118.365591 C181.407407,118.458065 181.407407,118.458065 181.314815,118.458065 C181.037037,118.550538 180.759259,118.643011 180.481481,118.735484 C180.296296,118.827957 180.111111,118.827957 180.018519,119.012903 C179.925926,119.197849 179.833333,119.382796 179.925926,119.475269 C180.018519,119.567742 180.203704,119.660215 180.296296,119.660215 C180.481481,119.752688 180.574074,119.845161 180.574074,120.030108 C180.481481,120.307527 179.925926,120.122581 179.925926,120.4 C179.925926,120.492473 179.925926,120.584946 179.925926,120.677419 C180.018519,120.954839 180.111111,121.139785 180.111111,121.417204 C180.203704,121.694624 180.111111,121.972043 179.925926,122.064516 C179.740741,122.156989 179.555556,122.064516 179.462963,121.87957 C179.37037,121.694624 179.37037,121.509677 179.37037,121.324731 C179.37037,121.139785 179.37037,120.862366 179.185185,120.677419 C179.092593,120.584946 178.907407,120.677419 178.722222,120.769892 C178.62963,120.862366 178.537037,121.047312 178.537037,121.139785 C178.444444,121.417204 178.444444,121.694624 178.537037,121.87957 L177.888889,121.87957 Z" id="Path" fill="#3B47BC"></path>
                <path d="M187.333333,120.4 C187.796296,120.122581 188.166667,119.475269 188.814815,119.475269 C189,119.475269 189.185185,119.567742 189.37037,119.660215 C190.018519,119.937634 190.574074,120.307527 191.222222,120.584946 C192.148148,121.047312 193.166667,121.602151 193.814815,122.434409 C194.092593,122.804301 194.277778,123.35914 194.648148,123.636559 C194.833333,123.821505 195.111111,123.913978 195.296296,124.191398 C194.925926,124.376344 194.462963,124.191398 194.092593,123.913978 C193.722222,123.729032 193.444444,123.35914 193.074074,123.174194 C192.703704,122.989247 192.240741,122.989247 191.87037,123.266667 C191.685185,123.451613 191.592593,123.729032 191.407407,123.913978 C191.222222,124.098925 190.944444,124.283871 190.759259,124.098925 C190.666667,124.006452 190.574074,123.821505 190.481481,123.729032 C190.296296,123.35914 189.833333,123.266667 189.37037,123.35914 C189.277778,123.35914 189.092593,123.35914 189,123.266667 C188.814815,123.174194 188.907407,122.896774 188.907407,122.711828 C188.907407,122.064516 188.351852,121.602151 187.796296,121.324731 C187.240741,121.047312 186.592593,120.954839 186.037037,120.677419 C185.481481,120.4 185.111111,119.845161 184.740741,119.382796 C184.648148,119.290323 184.555556,119.197849 184.555556,119.105376 C184.555556,118.92043 184.740741,118.735484 184.925926,118.735484 C185.111111,118.735484 185.296296,118.827957 185.481481,118.92043 C185.851852,119.105376 186.037037,119.475269 186.314815,119.752688 L187.333333,120.4 Z" id="Path" fill="#3B47BC"></path>
                <path d="M175.574074,139.541935 C175.666667,138.802151 176.037037,138.062366 175.944444,137.322581 C175.851852,137.045161 175.759259,136.767742 175.666667,136.490323 C175.203704,135.473118 174.925926,134.455914 174.740741,133.346237 C174.648148,132.883871 174.648148,132.329032 174.925926,131.866667 C175.203704,131.404301 175.851852,131.219355 176.407407,131.034409 C177.148148,130.849462 177.888889,130.664516 178.444444,130.294624 C179,129.924731 179.648148,129.369892 179.833333,128.630108 C179.925926,128.352688 179.925926,128.075269 180.203704,127.982796 C180.574074,127.797849 180.944444,128.260215 181.314815,128.075269 C181.592593,127.982796 181.685185,127.612903 181.962963,127.335484 C182.240741,127.058065 182.611111,126.965591 182.981481,127.150538 C183.166667,127.243011 183.351852,127.52043 183.62963,127.52043 C183.907407,127.52043 184,127.150538 184.185185,126.873118 C184.37037,126.410753 184.925926,126.04086 185.388889,125.948387 C185.851852,125.855914 186.407407,125.855914 186.962963,125.855914 C187.240741,125.855914 187.611111,125.948387 187.703704,126.225806 C187.888889,126.595699 187.240741,127.150538 187.518519,127.52043 C187.611111,127.612903 187.703704,127.705376 187.796296,127.705376 C188.351852,128.075269 189,128.352688 189.555556,128.722581 C189.648148,128.815054 189.833333,128.815054 189.925926,128.815054 C190.111111,128.722581 190.111111,128.537634 190.203704,128.352688 C190.388889,127.52043 190.759259,126.780645 191.222222,126.133333 C191.87037,126.503226 192.425926,127.150538 192.611111,127.890323 C192.703704,128.167742 192.796296,128.445161 192.888889,128.722581 C193.074074,129.092473 193.351852,129.369892 193.62963,129.647312 C194.185185,130.202151 194.740741,130.756989 195.296296,131.404301 C195.666667,131.774194 195.944444,132.144086 196.222222,132.513978 C196.5,132.976344 196.685185,133.43871 196.87037,133.993548 C197.240741,135.380645 197.425926,136.860215 196.87037,138.154839 C196.407407,139.264516 195.574074,140.189247 194.740741,141.113978 C194.37037,141.576344 193.814815,142.03871 193.259259,141.853763 C193.074074,141.853763 192.888889,141.76129 192.703704,141.668817 C192.240741,141.576344 191.685185,141.76129 191.222222,141.668817 C190.666667,141.576344 190.203704,141.206452 189.740741,140.744086 C189.277778,140.28172 188.814815,139.911828 188.62963,139.356989 C188.537037,138.987097 188.351852,138.524731 187.981481,138.524731 C187.703704,138.524731 187.425926,138.987097 187.148148,138.894624 C187.055556,138.894624 186.962963,138.802151 186.87037,138.709677 C186.314815,137.969892 185.296296,137.692473 184.37037,137.6 C183.444444,137.6 182.518519,137.877419 181.592593,138.062366 C181.12963,138.154839 180.666667,138.339785 180.203704,138.432258 C179.185185,138.709677 178.074074,138.987097 177.055556,139.264516 L175.574074,139.541935 Z" id="Path" fill="#3B47BC"></path>
                <polygon id="Path" fill="#D6D6D6" points="24.9259259 75.827957 0.666666667 64.3612903 47.7962963 37.2666667"></polygon>
                <path d="M196.962963,102.460215 C196.962963,98.7612903 193.907407,95.7096774 190.203704,95.7096774 C186.5,95.7096774 183.444444,98.7612903 183.444444,102.460215 C183.444444,104.124731 184.092593,105.696774 185.111111,106.898925 L189.925926,116.793548 L194.925926,107.268817 C195.851852,106.344086 196.592593,105.049462 196.777778,103.662366 L196.777778,103.662366 L196.777778,103.662366 C196.87037,103.292473 196.962963,102.922581 196.962963,102.460215 Z M190.296296,105.696774 C188.62963,105.696774 187.240741,104.309677 187.240741,102.645161 C187.240741,100.980645 188.62963,99.5935484 190.296296,99.5935484 C191.962963,99.5935484 193.351852,100.980645 193.351852,102.645161 C193.444444,104.309677 192.055556,105.696774 190.296296,105.696774 Z" id="Shape" fill="#FF8382"></path>
                <path d="M160.481481,66.0258065 C160.481481,62.3268817 157.425926,59.2752688 153.722222,59.2752688 C150.018519,59.2752688 146.962963,62.3268817 146.962963,66.0258065 C146.962963,67.6903226 147.611111,69.2623656 148.62963,70.4645161 L153.444444,80.3591398 L158.444444,70.8344086 C159.37037,69.9096774 160.111111,68.6150538 160.296296,67.227957 L160.296296,67.227957 L160.296296,67.227957 C160.481481,66.8580645 160.481481,66.488172 160.481481,66.0258065 Z M153.907407,69.2623656 C152.240741,69.2623656 150.851852,67.8752688 150.851852,66.2107527 C150.851852,64.5462366 152.240741,63.1591398 153.907407,63.1591398 C155.574074,63.1591398 156.962963,64.5462366 156.962963,66.2107527 C156.962963,67.8752688 155.574074,69.2623656 153.907407,69.2623656 Z" id="Shape" fill="#FF8382"></path>
                <path d="M114,92.4731183 C114,88.7741935 110.944444,85.7225806 107.240741,85.7225806 C103.537037,85.7225806 100.481481,88.7741935 100.481481,92.4731183 C100.481481,94.1376344 101.12963,95.7096774 102.148148,96.911828 L106.962963,106.806452 L111.962963,97.2817204 C112.888889,96.3569892 113.62963,95.0623656 113.814815,93.6752688 L113.814815,93.6752688 L113.814815,93.6752688 C113.907407,93.2129032 114,92.8430108 114,92.4731183 Z M107.333333,95.6172043 C105.666667,95.6172043 104.277778,94.2301075 104.277778,92.5655914 C104.277778,90.9010753 105.666667,89.5139785 107.333333,89.5139785 C109,89.5139785 110.388889,90.9010753 110.388889,92.5655914 C110.388889,94.2301075 109.092593,95.6172043 107.333333,95.6172043 Z" id="Shape" fill="#FF8382"></path>
                <path d="M88.8148148,105.604301 C88.8148148,101.905376 85.7592593,98.8537634 82.0555556,98.8537634 C78.3518519,98.8537634 75.2962963,101.905376 75.2962963,105.604301 C75.2962963,107.268817 75.9444444,108.84086 76.962963,110.043011 L81.7777778,119.937634 L86.7777778,110.412903 C87.7037037,109.488172 88.4444444,108.193548 88.6296296,106.806452 L88.6296296,106.806452 L88.6296296,106.806452 C88.8148148,106.436559 88.8148148,105.974194 88.8148148,105.604301 Z M82.2407407,108.84086 C80.5740741,108.84086 79.1851852,107.453763 79.1851852,105.789247 C79.1851852,104.124731 80.5740741,102.737634 82.2407407,102.737634 C83.9074074,102.737634 85.2962963,104.124731 85.2962963,105.789247 C85.2962963,107.453763 83.9074074,108.84086 82.2407407,108.84086 Z" id="Shape" fill="#FF8382"></path>
                <path d="M63.0740741,65.4709677 C63.0740741,61.772043 60.0185185,58.7204301 56.3148148,58.7204301 C52.6111111,58.7204301 49.5555556,61.772043 49.5555556,65.4709677 C49.5555556,67.1354839 50.2037037,68.7075269 51.2222222,69.9096774 L56.037037,79.8043011 L61.037037,70.2795699 C61.962963,69.3548387 62.7037037,68.0602151 62.8888889,66.6731183 L62.8888889,66.6731183 L62.8888889,66.6731183 C62.9814815,66.2107527 63.0740741,65.8408602 63.0740741,65.4709677 Z M56.4074074,68.7075269 C54.7407407,68.7075269 53.3518519,67.3204301 53.3518519,65.655914 C53.3518519,63.9913978 54.7407407,62.6043011 56.4074074,62.6043011 C58.0740741,62.6043011 59.462963,63.9913978 59.462963,65.655914 C59.462963,67.3204301 58.1666667,68.7075269 56.4074074,68.7075269 Z" id="Shape" fill="#FF8382"></path>
            </g>
            <g id="Woman_2_" transform="translate(0.000000, 108.000000)">
                <path d="M77.5796178,323.538462 C77.5796178,323.538462 77.5796178,337.292308 77.5796178,336.738462 C77.5796178,336.184615 66.3121019,336.738462 66.3121019,336.738462 L66.3121019,323.538462 L77.5796178,323.538462 Z" id="Path" fill="#FFD3CA"></path>
                <path d="M104.547771,348 C104.547771,348 105.194268,345.507692 98.2675159,343.015385 C91.3407643,340.523077 77.5796178,336.738462 77.5796178,336.738462 L66.3121019,336.738462 C66.3121019,336.738462 62.5254777,343.661538 63.1719745,348 L104.547771,348 L104.547771,348 Z" id="Path" fill="#3B47BC"></path>
                <polygon id="Path" fill="#FFD3CA" points="22.4426752 323.538462 21.7961783 335.446154 11.7292994 335.446154 11.7292994 323.538462"></polygon>
                <path d="M0.461783439,348 C0.461783439,348 6.0955414,337.938462 11.7292994,335.446154 L22.3503185,335.446154 C22.3503185,335.446154 20.5031847,339.876923 22.3503185,341.723077 C24.1974522,343.569231 24.843949,348 24.843949,348 L0.461783439,348 L0.461783439,348 Z" id="Path" fill="#3B47BC"></path>
                <path d="M46.2707006,131.815385 C46.2707006,131.815385 21.1496815,153.784615 27.4299363,192 C27.4299363,192 23.6433121,220.8 19.9490446,249.046154 L8.68152866,326.123077 L25.5828025,326.123077 L58.8312102,192 L59.477707,130.615385 L46.2707006,131.815385 Z" id="Path" fill="#281616"></path>
                <path d="M144.72293,71.6307692 C142.875796,76.6153846 131.515924,86.6769231 131.515924,86.6769231 C131.05414,87.0461538 130.592357,87.4153846 130.130573,87.7846154 L130.22293,87.9692308 L103.993631,128.4 C101.592357,132.092308 96.1433121,132.184615 93.7420382,128.492308 L79.888535,108 L79.4267516,107.353846 L94.4808917,95.4461538 L100.207006,108 L101.315287,110.492308 L124.773885,79.5692308 C123.573248,73.3846154 125.697452,65.3538462 125.697452,65.3538462 L128.191083,60.3692308 C129.484076,61.0153846 129.484076,62.2153846 129.484076,62.2153846 L128.191083,66.6461538 L128.83758,71.6307692 L142.044586,56.5846154 C143.89172,55.2923077 143.89172,57.8769231 143.89172,57.8769231 L139.458599,65.3538462 C141.305732,64.7076923 141.305732,67.8461538 141.305732,67.8461538 C143.152866,67.8461538 143.152866,69.6923077 143.152866,69.6923077 C145.27707,69.7846154 144.72293,71.6307692 144.72293,71.6307692 Z" id="Path" fill="#FFD3CA"></path>
                <polygon id="Path" fill="#F9B2B2" points="100.299363 108 79.888535 108 79.4267516 107.353846 94.4808917 95.4461538"></polygon>
                <path d="M86.3535032,131.815385 C101.407643,167.538462 85.7070064,247.107692 85.7070064,247.107692 L78.7802548,329.815385 L63.0796178,329.815385 L60.5859873,257.076923 C58.7388535,224.492308 54.3057325,190.615385 54.3057325,190.615385 C35.8343949,162.738462 43.9617834,132 43.9617834,132 L86.3535032,131.815385 Z" id="Path" fill="#3B47BC"></path>
                <path d="M48.1178344,37.8461538 L47.4713376,61.0153846 L54.3980892,64.1538462 L65.6656051,62.3076923 C65.6656051,62.3076923 61.2324841,44.1230769 62.5254777,34.1538462 L48.1178344,37.8461538 Z" id="Path" fill="#FFD3CA"></path>
                <path d="M59.3853503,44.0307692 C59.3853503,44.0307692 66.6815287,48.2769231 70.6528662,40.2461538 C72.5,36.4615385 75.0859873,28.3384615 73.1464968,15.1384615 L58.7388535,20.7692308 L59.3853503,44.0307692 Z" id="Path" fill="#FFD3CA"></path>
                <path d="M87,133.384615 L87,133.661538 L84.2292994,133.846154 L42.4840764,136.153846 L33.7101911,106.707692 C33.7101911,106.707692 31.4936306,106.707692 28.8152866,106.246154 C25.9522293,105.692308 22.4426752,104.584615 20.5031847,102.369231 C16.7165605,97.9384615 26.7834395,74.7692308 29.9235669,68.4923077 C33.0636943,62.2153846 45.9012739,58.8 45.9012739,58.8 C45.9012739,58.8 53.4745223,64.4307692 65.9426752,60 C65.9426752,60 83.2133758,63.4153846 87.5541401,74.7692308 L97.6210191,97.9384615 L84.4140127,107.353846 L86.8152866,132.830769 L87,133.384615 Z" id="Path" fill="#FF8685"></path>
                <path d="M87,133.661538 L84.2292994,133.846154 L42.4840764,136.153846 L33.7101911,106.707692 C33.7101911,106.707692 31.4936306,106.707692 28.8152866,106.246154 C29.2770701,97.0153846 30.5700637,83.1692308 34.633758,103.846154 C39.4363057,128.4 76.5636943,132.276923 86.9076433,132.830769 L87,133.384615 L87,133.661538 Z" id="Path" fill="#EF6C6C"></path>
                <path d="M68.6210191,3.96923077 C66.0350318,1.47692308 62.433121,-0.0923076923 58.8312102,1.30104261e-18 C57.4458599,0.0923076923 56.1528662,0.184615385 54.9522293,0.461538462 C54.1210191,0.276923077 53.2898089,0.184615385 52.4585987,0.0923076923 C47.1019108,-0.276923077 41.8375796,1.75384615 37.4044586,4.61538462 C35.4649682,5.90769231 33.6178344,7.38461538 32.0477707,9.04615385 C29.0923567,12.4615385 27.2452229,16.8923077 27.0605096,21.3230769 C26.8757962,25.8461538 28.9076433,30.6461538 26.4140127,34.3384615 C25.2133758,36 23.6433121,37.2 22.1656051,38.4 C17.455414,42.1846154 12.7452229,47.0769231 13.022293,53.0769231 C13.2993631,58.6153846 17.8248408,62.9538462 19.9490446,68.1230769 C22.1656051,73.4769231 21.611465,79.8461538 18.4713376,84.7384615 C16.7165605,87.5076923 14.2229299,89.7230769 12.4681529,92.5846154 C10.7133758,95.4461538 9.88216561,99.1384615 11.6369427,101.907692 C12.8375796,103.753846 14.8694268,104.769231 16.8089172,105.507692 C22.6273885,107.723077 29.2770701,108.276923 35.0955414,106.061538 C40.9140127,103.846154 45.7165605,98.4 46.1783439,92.1230769 C46.3630573,89.1692308 45.7165605,85.9384615 47.2866242,83.4461538 C48.6719745,81.2307692 51.2579618,80.3076923 53.6592357,79.2923077 C57.6305732,77.5384615 61.6942675,74.5846154 62.2484076,70.2461538 C63.1719745,63.7846154 56.2452229,58.2461538 57.0764331,51.8769231 C57.6305732,47.3538462 65.6656051,40.4307692 65.2961783,36.0923077 C65.2961783,35.6307692 64.4649682,30.2769231 64.5573248,28.4307692 C64.5573248,26.9538462 65.5732484,25.5692308 67.0509554,25.0153846 C68.4363057,24.5538462 70.0987261,24.9230769 71.1146497,26.1230769 C72.8694268,23.5384615 73.2388535,20.3076923 73.1464968,17.2615385 C73.2388535,12.5538462 72.1305732,7.38461538 68.6210191,3.96923077 Z" id="Path" fill="#281616"></path>
                <path d="M74.1624204,330.184615 L72.7770701,330.092308 C72.8694268,328.615385 84.5987261,183.230769 76.8407643,133.938462 L78.2261146,133.753846 C85.9840764,183.138462 74.3471338,328.707692 74.1624204,330.184615 Z" id="Path" fill="#D6D6D6"></path>
            </g>
        </g>
        <text id="Set-Your-destination" font-family="PlayfairDisplay-Black, Playfair Display" font-size="32" font-weight="700" fill="#131415">
            <tspan x="59.9140625" y="629">Set Your destination</tspan>
        </text>
        <text id="Our-new-service-make" font-family="Muli-SemiBold, Muli" font-size="16" font-weight="500" line-spacing="26" letter-spacing="0.5" fill="#7E8795">
            <tspan x="44" y="702">Our new service makes it easy for you to </tspan>
            <tspan x="44" y="728">work anywhere, there are new features </tspan>
            <tspan x="44" y="754">will really help you.</tspan>
        </text>
        <g id="Misc/Big-Button" filter="url(#filter-1)" transform="translate(306.000000, 803.000000)">
            <path d="M26.5,0 L48.5,0 C63.1355459,-2.68850616e-15 75,11.8644541 75,26.5 C75,41.1355459 63.1355459,53 48.5,53 L26.5,53 C11.8644541,53 1.79233744e-15,41.1355459 0,26.5 C-1.79233744e-15,11.8644541 11.8644541,2.68850616e-15 26.5,0 Z" id="Background" fill="#F85D6D"></path>
            <g id="Group" transform="translate(24.000000, 19.000000)" stroke="#FFFFFF" stroke-linecap="round" stroke-linejoin="round" stroke-width="2">
                <line x1="0" y1="7.5" x2="26" y2="7.5" id="Path-2"></line>
                <polyline id="Shape" points="19 0 27 7.5 19 15"></polyline>
            </g>
        </g>
        <g id="Group" transform="translate(44.000000, 825.000000)">
            <rect id="Rectangle" fill="#F85D6D" x="20" y="0" width="20" height="10" rx="5"></rect>
            <rect id="Rectangle" fill="#E6E8EB" x="0" y="0" width="10" height="10" rx="5"></rect>
            <rect id="Rectangle" fill="#E6E8EB" x="50" y="0" width="10" height="10" rx="5"></rect>
        </g>
    </g>
</svg>